<svg width="140" height="20" viewBox="0 0 140 20" fill="none" xmlns="http://www.w3.org/2000/svg">
<path d="M2.84814 20C2.31578 20 1.82778 19.8772 1.38414 19.6316C0.958253 19.3684 0.62109 19.0263 0.372654 18.6053C0.124218 18.1842 0 17.7105 0 17.1842C0 16.6579 0.124218 16.1842 0.372654 15.7632C0.62109 15.3421 0.958253 15.0088 1.38414 14.7632C1.82778 14.5 2.31578 14.3684 2.84814 14.3684C3.3805 14.3684 3.85963 14.5 4.28552 14.7632C4.71141 15.0088 5.04857 15.3421 5.29701 15.7632C5.56319 16.1842 5.69628 16.6579 5.69628 17.1842C5.69628 17.7105 5.56319 18.1842 5.29701 18.6053C5.04857 19.0263 4.71141 19.3684 4.28552 19.6316C3.85963 19.8772 3.3805 20 2.84814 20Z" fill="#9EFF00"/>
<path d="M10.5951 1.60526H14.1087V19.7368H10.5951V1.60526ZM2.34344 0H22.3603V3.05263H2.34344V0Z" fill="white"/>
<path d="M23.9393 15.2105V12.3421H37.8872V15.2105H23.9393ZM33.2024 0L42.7849 19.7368H39.0318L30.3276 1.31579H31.6852L22.981 19.7368H19.2279L28.8104 0H33.2024Z" fill="white"/>
<path d="M63.4516 17.6316L62.0142 17.7895V0H65.4214V19.7368H60.9495L46.9484 1.94737L48.3591 1.78947V19.7368H44.952V0H49.5303L63.4516 17.6316Z" fill="white"/>
<path d="M78.6379 0C80.9093 0 82.8968 0.412281 84.6004 1.23684C86.3217 2.0614 87.6614 3.2193 88.6197 4.71053C89.5779 6.18421 90.0571 7.90351 90.0571 9.86842C90.0571 11.8333 89.5779 13.5614 88.6197 15.0526C87.6614 16.5263 86.3217 17.6754 84.6004 18.5C82.8968 19.3246 80.9093 19.7368 78.6379 19.7368H69.6143V0H78.6379ZM73.1279 18.5263L71.1848 16.6842H78.8775C80.4036 16.6842 81.7345 16.4035 82.8702 15.8421C84.0236 15.2632 84.9109 14.4649 85.532 13.4474C86.1708 12.4123 86.4902 11.2193 86.4902 9.86842C86.4902 8.5 86.1708 7.30702 85.532 6.28947C84.9109 5.27193 84.0236 4.48246 82.8702 3.92105C81.7345 3.34211 80.4036 3.05263 78.8775 3.05263H71.1848L73.1279 1.21053V18.5263Z" fill="white"/>
<path d="M108.973 8.42105V11.3158H95.0253V8.42105H108.973ZM97.3411 9.86842L95.9303 18.6842L94.2534 16.7368H109.745V19.7368H92.3369L93.934 9.86842L92.3369 0H109.612V3H94.2534L95.9303 1.05263L97.3411 9.86842Z" fill="white"/>
<path d="M140 0V19.7368H136.646V1.05263L137.737 1.10526L128.448 19.7368H124.695L115.405 1.13158L116.496 1.07895V19.7368H113.142V0H118.519L127.463 18.2368H125.706L134.623 0H140Z" fill="white"/>
</svg>
