<svg width="1920" height="365" viewBox="0 0 1920 365" fill="none" xmlns="http://www.w3.org/2000/svg">
<path d="M-86 64.3218V0H216.417V64.3218H103.685V368.995H26.7321V64.3218H-86Z" fill="white"/>
<path d="M254.316 368.995H170.891L298.007 0H398.333L525.269 368.995H441.844L349.608 84.321H346.731L254.316 368.995ZM249.102 223.955H446.159V284.854H249.102V223.955Z" fill="white"/>
<path d="M539.21 368.995V0H617.062V152.246H775.103V0H852.775V368.995H775.103V216.568H617.062V368.995H539.21Z" fill="white"/>
<path d="M866.626 458V306.835H891.618C900.128 300.709 907.919 292.061 914.991 280.89C922.063 269.599 928.116 254.044 933.151 234.225C938.185 214.286 941.781 188.221 943.938 156.03L954.367 0H1197.99V306.835H1238.26V457.64H1163.47V368.995H941.421V458H866.626ZM981.516 306.835H1123.2V64.3218H1024.49L1018.73 156.03C1017.18 180.413 1014.6 202.034 1011 220.892C1007.53 239.75 1003.27 256.266 998.237 270.44C993.323 284.493 987.749 296.625 981.516 306.835Z" fill="white"/>
<path d="M1255.22 368.995V0H1503.34V64.3218H1333.07V152.246H1490.57V216.568H1333.07V304.673H1504.06V368.995H1255.22Z" fill="white"/>
<path d="M1534.85 0H1630.86L1732.27 247.918H1736.58L1837.99 0H1934V368.995H1858.49V128.824H1855.43L1760.14 367.193H1708.72L1613.42 127.923H1610.37V368.995H1534.85V0Z" fill="white"/>
</svg>
